<svg xmlns="http://www.w3.org/2000/svg" viewBox="0 0 192 192">
  <rect width="192" height="192" rx="40" fill="#3B82F6"/>
  <!-- Receipt paper -->
  <rect x="52" y="32" width="88" height="116" rx="8" fill="white"/>
  <!-- Serrated bottom -->
  <path d="M52 148 l6-8 6 8 6-8 6 8 6-8 6 8 6-8 6 8 6-8 6 8 6-8 6 8 6-8 6 8 6-8" stroke="white" stroke-width="2" fill="none"/>
  <!-- Lines on receipt -->
  <rect x="64" y="52" width="64" height="6" rx="3" fill="#3B82F6" opacity="0.5"/>
  <rect x="64" y="66" width="48" height="4" rx="2" fill="#93C5FD"/>
  <rect x="64" y="78" width="56" height="4" rx="2" fill="#93C5FD"/>
  <rect x="64" y="90" width="44" height="4" rx="2" fill="#93C5FD"/>
  <!-- Total line -->
  <rect x="64" y="108" width="64" height="5" rx="2.5" fill="#3B82F6" opacity="0.7"/>
  <rect x="104" y="120" width="24" height="7" rx="3.5" fill="#3B82F6"/>
</svg>
